<?xml version="1.0" encoding="utf-8"?>
<!-- Generator: Adobe Illustrator 23.1.1, SVG Export Plug-In . SVG Version: 6.00 Build 0)  -->
<svg version="1.1" id="Layer_1" xmlns="http://www.w3.org/2000/svg" xmlns:xlink="http://www.w3.org/1999/xlink" x="0px" y="0px"
	 viewBox="0 0 30 30" style="enable-background:new 0 0 30 30;" xml:space="preserve">
<style type="text/css">
	.st0{fill-rule:evenodd;clip-rule:evenodd;fill-opacity:0.9;}
</style>
<path class="st0" d="M1.71,6.38c0-1.19,0.96-2.16,2.16-2.16s2.16,0.96,2.16,2.16S5.06,8.53,3.86,8.53S1.71,7.57,1.71,6.38z M1.71,15
	c0-1.19,0.96-2.16,2.16-2.16S6.02,13.81,6.02,15s-0.96,2.16-2.16,2.16S1.71,16.19,1.71,15z M3.86,21.47c-1.19,0-2.16,0.98-2.16,2.16
	s0.98,2.16,2.16,2.16s2.16-0.98,2.16-2.16S5.06,21.47,3.86,21.47z M26.85,25.06H9.61c-0.79,0-1.44-0.65-1.44-1.44
	c0-0.79,0.65-1.44,1.44-1.44h17.24c0.79,0,1.44,0.65,1.44,1.44C28.29,24.41,27.64,25.06,26.85,25.06z M9.61,16.44h17.24
	c0.79,0,1.44-0.65,1.44-1.44s-0.65-1.44-1.44-1.44H9.61c-0.79,0-1.44,0.65-1.44,1.44S8.82,16.44,9.61,16.44z M9.61,7.82
	c-0.79,0-1.44-0.65-1.44-1.44s0.65-1.44,1.44-1.44h17.24c0.79,0,1.44,0.65,1.44,1.44s-0.65,1.44-1.44,1.44H9.61z"/>
</svg>
